<svg width="512" height="512" viewBox="0 0 512 512" fill="none" xmlns="http://www.w3.org/2000/svg">
  <rect width="512" height="512" rx="96" fill="#05050A"/>
  <defs>
    <linearGradient id="g" x1="96" y1="80" x2="432" y2="432" gradientUnits="userSpaceOnUse">
      <stop stop-color="#8A2BFF"/>
      <stop offset="0.55" stop-color="#6D2DFF"/>
      <stop offset="1" stop-color="#28A9FF"/>
    </linearGradient>
    <filter id="glow" x="48" y="48" width="416" height="416" filterUnits="userSpaceOnUse" color-interpolation-filters="sRGB">
      <feGaussianBlur stdDeviation="12" result="blur"/>
      <feMerge>
        <feMergeNode in="blur"/>
        <feMergeNode in="SourceGraphic"/>
      </feMerge>
    </filter>
  </defs>
  <path filter="url(#glow)" d="M104 102H254C350 102 416 168 416 256C416 343 350 410 254 410H104V102ZM178 172V340H252C306 340 342 306 342 256C342 206 306 172 252 172H178Z" fill="url(#g)"/>
  <path d="M218 218H284V294H218V218Z" fill="#05050A"/>
  <path d="M286 410L406 292H316L196 410H286Z" fill="#05050A"/>
  <path d="M310 410L424 296H338L224 410H310Z" fill="url(#g)" opacity="0.94"/>
  <path d="M104 102H178V410H104V102Z" fill="url(#g)"/>
</svg>
