<svg width="512" height="512" viewBox="0 0 512 512" fill="none" xmlns="http://www.w3.org/2000/svg">
  <rect width="512" height="512" fill="#020205"/>
  <defs>
    <linearGradient id="logoPurple" x1="74" y1="78" x2="430" y2="430" gradientUnits="userSpaceOnUse">
      <stop stop-color="#8d35ff"/>
      <stop offset="0.55" stop-color="#6e2cff"/>
      <stop offset="1" stop-color="#4d7dff"/>
    </linearGradient>
    <filter id="softGlow" x="32" y="32" width="448" height="448" filterUnits="userSpaceOnUse" color-interpolation-filters="sRGB">
      <feGaussianBlur stdDeviation="7" result="blur"/>
      <feMerge>
        <feMergeNode in="blur"/>
        <feMergeNode in="SourceGraphic"/>
      </feMerge>
    </filter>
    <filter id="redGlow" x="300" y="12" width="210" height="210" filterUnits="userSpaceOnUse" color-interpolation-filters="sRGB">
      <feGaussianBlur stdDeviation="5" result="blur"/>
      <feMerge><feMergeNode in="blur"/><feMergeNode in="SourceGraphic"/></feMerge>
    </filter>
    <filter id="blueGlow" x="0" y="320" width="210" height="210" filterUnits="userSpaceOnUse" color-interpolation-filters="sRGB">
      <feGaussianBlur stdDeviation="5" result="blur"/>
      <feMerge><feMergeNode in="blur"/><feMergeNode in="SourceGraphic"/></feMerge>
    </filter>
  </defs>
  <g filter="url(#softGlow)">
    <path d="M98 105H256C350 105 420 170 420 255C420 342 350 407 256 407H98V105ZM179 173V339H251C305 339 343 305 343 255C343 207 305 173 251 173H179Z" fill="url(#logoPurple)"/>
    <path d="M214 216H284V296H214V216Z" fill="#020205"/>
    <path d="M292 407L418 284H324L198 407H292Z" fill="#020205"/>
    <path d="M318 407L430 297H340L228 407H318Z" fill="url(#logoPurple)" opacity="0.96"/>
    <path d="M98 105H179V407H98V105Z" fill="url(#logoPurple)"/>
  </g>
  <g filter="url(#redGlow)" opacity="0.96">
    <path d="M365 54L409 98L453 54L479 80L435 124L479 168L453 194L409 150L365 194L339 168L383 124L339 80L365 54Z" fill="#ff315f"/>
  </g>
  <g filter="url(#blueGlow)" opacity="0.96">
    <circle cx="103" cy="411" r="51" stroke="#2fa8ff" stroke-width="31"/>
  </g>
</svg>
